<svg xmlns="http://www.w3.org/2000/svg" xmlns:xlink="http://www.w3.org/1999/xlink" width="500" zoomAndPan="magnify" viewBox="0 0 375 374.999991" height="500" preserveAspectRatio="xMidYMid meet" version="1.0"><defs><g/><clipPath id="c25fc7e87a"><path d="M 190 135 L 270 135 L 270 187 L 190 187 Z M 190 135 " clip-rule="nonzero"/></clipPath><clipPath id="ea1d9b9b7e"><path d="M 217 111.128906 L 279.65625 148.101562 L 242.683594 210.757812 L 180.027344 173.785156 Z M 217 111.128906 " clip-rule="nonzero"/></clipPath><clipPath id="4c8cff66e7"><path d="M 217 111.128906 L 279.65625 148.101562 L 242.683594 210.757812 L 180.027344 173.785156 Z M 217 111.128906 " clip-rule="nonzero"/></clipPath><clipPath id="1689f8fe79"><rect x="0" width="46" y="0" height="28"/></clipPath></defs><g clip-path="url(#c25fc7e87a)"><g clip-path="url(#ea1d9b9b7e)"><g clip-path="url(#4c8cff66e7)"><path fill="#ff3131" d="M 254.660156 170.226562 L 254.515625 169.65625 L 257.933594 168.773438 L 258.082031 169.34375 Z M 258.597656 163.886719 L 259.292969 166.578125 C 259.3125 166.667969 259.332031 166.757812 259.34375 166.847656 L 258.761719 166.929688 C 258.753906 166.859375 258.742188 166.792969 258.722656 166.726562 L 258.027344 164.035156 Z M 257.273438 161.109375 L 256.515625 158.183594 L 257.085938 158.039062 L 257.839844 160.960938 Z M 248.8125 171.738281 L 248.664062 171.167969 L 251.589844 170.414062 L 251.738281 170.980469 Z M 255.761719 155.257812 L 255.007812 152.335938 L 255.574219 152.1875 L 256.328125 155.113281 Z M 242.960938 173.246094 L 242.816406 172.679688 L 245.742188 171.925781 L 245.886719 172.492188 Z M 254.25 149.410156 L 253.496094 146.484375 L 254.0625 146.339844 L 254.820312 149.261719 Z M 237.113281 174.757812 L 236.964844 174.191406 L 239.890625 173.433594 L 240.039062 174.003906 Z M 252.738281 143.558594 L 252.339844 142.007812 C 252.234375 141.605469 252.003906 141.265625 251.671875 141.019531 L 252.019531 140.546875 C 252.457031 140.867188 252.769531 141.335938 252.90625 141.863281 L 253.308594 143.414062 Z M 231.261719 176.269531 L 231.117188 175.703125 L 234.042969 174.945312 L 234.1875 175.515625 Z M 225.414062 177.78125 L 225.265625 177.210938 L 228.191406 176.457031 L 228.335938 177.023438 Z M 245.957031 141.207031 L 248.882812 140.449219 L 249.027344 141.019531 L 246.101562 141.773438 Z M 219.5625 179.292969 L 219.417969 178.722656 L 222.339844 177.96875 L 222.488281 178.535156 Z M 240.105469 142.714844 L 243.03125 141.960938 L 243.179688 142.527344 L 240.253906 143.285156 Z M 213.714844 180.800781 L 213.566406 180.234375 L 216.492188 179.480469 L 216.636719 180.046875 Z M 234.257812 144.226562 L 237.183594 143.472656 L 237.328125 144.039062 L 234.402344 144.796875 Z M 209.65625 181.851562 C 209.042969 182.007812 208.402344 181.917969 207.855469 181.59375 C 207.785156 181.554688 207.714844 181.507812 207.652344 181.460938 L 208 180.988281 C 208.050781 181.023438 208.101562 181.058594 208.15625 181.089844 C 208.566406 181.332031 209.046875 181.402344 209.511719 181.28125 L 210.640625 180.988281 L 210.789062 181.558594 Z M 231.332031 144.984375 L 231.476562 145.550781 L 228.554688 146.304688 L 228.40625 145.738281 Z M 222.703125 147.816406 L 222.558594 147.25 L 225.480469 146.492188 L 225.628906 147.0625 Z M 206.363281 178.589844 L 205.609375 175.667969 L 206.175781 175.519531 L 206.933594 178.445312 Z M 216.855469 149.328125 L 216.707031 148.761719 L 219.632812 148.003906 L 219.777344 148.574219 Z M 204.851562 172.742188 L 204.097656 169.816406 L 204.664062 169.667969 L 205.421875 172.59375 Z M 211.003906 150.839844 L 210.859375 150.269531 L 213.78125 149.515625 L 213.929688 150.082031 Z M 203.34375 166.890625 L 202.585938 163.964844 L 203.15625 163.820312 L 203.910156 166.746094 Z M 205.15625 152.351562 L 205.007812 151.78125 L 207.933594 151.027344 L 208.078125 151.59375 Z M 201.832031 161.042969 L 201.078125 158.117188 L 201.644531 157.96875 L 202.398438 160.894531 Z M 200.910156 155.074219 L 200.328125 155.15625 C 200.253906 154.628906 200.363281 154.085938 200.636719 153.628906 C 200.957031 153.082031 201.472656 152.695312 202.082031 152.539062 L 202.230469 153.105469 C 201.769531 153.226562 201.382812 153.515625 201.140625 153.925781 C 200.9375 154.273438 200.855469 154.679688 200.910156 155.074219 Z M 266.957031 169.625 C 266.449219 167.652344 267.621094 165.640625 269.582031 165.101562 L 269.300781 164.023438 C 269.308594 164.023438 268.847656 162.238281 268.839844 162.238281 L 268.695312 161.683594 C 266.722656 162.164062 264.722656 160.96875 264.210938 158.992188 C 263.699219 157.019531 264.875 155.007812 266.835938 154.46875 L 266.402344 152.796875 C 266.410156 152.796875 265.867188 150.699219 265.859375 150.699219 L 265.371094 148.804688 C 263.394531 149.285156 261.394531 148.089844 260.886719 146.117188 C 260.375 144.140625 261.546875 142.128906 263.507812 141.59375 L 263.421875 141.257812 C 263.429688 141.257812 262.898438 139.230469 262.90625 139.265625 L 262.59375 138.054688 C 260.648438 138.527344 258.675781 137.375 258.132812 135.449219 L 256.253906 135.945312 L 194.585938 151.875 L 192.804688 152.320312 C 193.265625 154.285156 192.074219 156.269531 190.109375 156.777344 C 190.09375 156.78125 190.074219 156.785156 190.058594 156.789062 L 190.972656 160.328125 C 190.988281 160.324219 191.003906 160.316406 191.023438 160.3125 C 193.015625 159.796875 195.046875 160.996094 195.5625 162.988281 C 196.078125 164.980469 194.878906 167.011719 192.886719 167.527344 C 192.867188 167.53125 192.851562 167.535156 192.832031 167.539062 L 194.296875 173.203125 C 194.3125 173.199219 194.332031 173.195312 194.347656 173.191406 C 196.339844 172.675781 198.375 173.875 198.886719 175.867188 C 199.402344 177.859375 198.203125 179.890625 196.210938 180.40625 C 196.195312 180.410156 196.175781 180.414062 196.160156 180.417969 L 197.042969 183.835938 C 197.058594 183.832031 197.078125 183.828125 197.09375 183.824219 C 199.085938 183.308594 201.121094 184.503906 201.632812 186.5 C 201.636719 186.511719 201.640625 186.527344 201.644531 186.542969 L 203.417969 186.074219 L 265.085938 170.148438 L 266.96875 169.667969 C 266.964844 169.65625 266.960938 169.640625 266.957031 169.625 " fill-opacity="1" fill-rule="nonzero"/></g></g></g><g fill="#ff3131" fill-opacity="1"><g transform="translate(39.362921, 219.287798)"><g><path d="M 12.9375 0.09375 L 11.40625 0.046875 L 9.96875 -0.453125 L 9.3125 -1.53125 L 9.421875 -2.484375 L 9.46875 -5.359375 L 9.375 -6.390625 L 9.421875 -10.40625 L 9.515625 -11.40625 L 9.375 -18.78125 L 9.46875 -20.171875 L 9.421875 -21.15625 L 9.46875 -22.25 L 9.375 -23.640625 L 9.46875 -25.234375 L 8.921875 -26.21875 L 7.984375 -26.71875 L 3.265625 -26.8125 L 2.28125 -26.71875 L 1.390625 -27.203125 L 0.9375 -28.109375 L 0.84375 -29.640625 L 0.9375 -32.109375 L 0.890625 -33.109375 L 1.484375 -34.25 L 2.421875 -34.75 L 5.890625 -34.546875 L 7.4375 -34.6875 L 10.359375 -34.546875 L 11.25 -34.75 L 12.34375 -34.640625 L 13.375 -34.796875 L 14.328125 -34.75 L 15.3125 -34.546875 L 19.328125 -34.75 L 20.265625 -34.640625 L 21.3125 -34.796875 L 22.25 -34.6875 L 25.328125 -34.6875 L 26.265625 -34.046875 L 26.8125 -33.0625 L 26.765625 -28.34375 L 26.171875 -27.265625 L 25.328125 -26.71875 L 24.4375 -26.765625 L 23.390625 -26.609375 L 21.5625 -26.859375 L 19.625 -26.765625 L 18.6875 -26.171875 L 18.28125 -24.6875 L 18.140625 -20.375 L 18.28125 -19.328125 L 18.1875 -11.34375 L 18.34375 -10.265625 L 18.234375 -9.375 L 18.28125 -7.390625 L 18.1875 -6.34375 L 18.34375 -4.453125 L 18.1875 -1.890625 L 17.6875 -0.5 L 16.25 0 Z M 12.9375 0.09375 "/></g></g></g><g fill="#ff3131" fill-opacity="1"><g transform="translate(63.893616, 219.287798)"><g><path d="M 2.375 -1.4375 L 2.375 -5.25 L 2.484375 -6.1875 L 3.078125 -7.140625 L 6.34375 -8.171875 L 6.84375 -9.265625 L 6.9375 -11.203125 L 6.734375 -13.328125 L 6.984375 -14.328125 L 6.796875 -16.25 L 6.890625 -17.25 L 6.9375 -19.28125 L 6.796875 -20.421875 L 6.734375 -21.265625 L 6.890625 -25.46875 L 6.25 -26.375 L 3.21875 -27.40625 L 2.71875 -28.34375 L 2.71875 -29.296875 L 2.625 -30.28125 L 2.625 -31.375 L 2.71875 -32.21875 L 2.71875 -33.15625 L 3.265625 -34.203125 L 4.359375 -34.6875 L 6.296875 -34.59375 L 7.234375 -34.640625 L 10.265625 -34.59375 L 11.34375 -34.6875 L 17.640625 -34.640625 L 19.234375 -34.203125 L 19.625 -33.203125 L 19.71875 -32.21875 L 19.625 -31.328125 L 19.625 -28.40625 L 19.078125 -27.453125 L 18.140625 -26.90625 L 17.046875 -26.859375 L 16.109375 -26.3125 L 15.5625 -25.421875 L 15.5625 -23.34375 L 15.65625 -22.296875 L 15.5625 -21.3125 L 15.65625 -20.375 L 15.5625 -18.828125 L 15.65625 -17.34375 L 15.46875 -15.265625 L 15.65625 -13.28125 L 15.5625 -9.21875 L 16.109375 -8.234375 L 19.421875 -7.1875 L 20.125 -6.34375 L 19.96875 -3.328125 L 20.078125 -2.421875 L 20.078125 -1.34375 L 19.53125 -0.453125 L 18.578125 0.046875 L 3.859375 -0.046875 L 2.875 -0.390625 Z M 2.375 -1.4375 "/></g></g></g><g fill="#ff3131" fill-opacity="1"><g transform="translate(82.675407, 219.287798)"><g><path d="M 18.234375 0.5 L 17.296875 0.5 L 16.40625 0.296875 L 15.359375 0.203125 L 14.328125 -0.15625 L 13.578125 -0.34375 L 12.59375 -0.6875 L 9.21875 -2.53125 L 8.46875 -3.125 L 7.625 -3.671875 L 5.84375 -5.40625 L 3.859375 -8.28125 L 3.515625 -9.125 L 3.015625 -10.015625 L 2.875 -10.90625 L 2.484375 -11.84375 L 1.984375 -13.78125 L 1.984375 -15.765625 L 1.78125 -17.34375 L 2.671875 -23.546875 L 4.953125 -28 L 5.546875 -28.84375 L 6.890625 -30.078125 L 7.484375 -30.875 L 10.953125 -33.109375 L 11.84375 -33.453125 L 12.59375 -33.90625 L 13.53125 -34.25 L 15.46875 -34.640625 L 16.40625 -34.9375 L 17.25 -35.046875 L 21.765625 -35.046875 L 24.234375 -34.6875 L 26.171875 -34.15625 L 29 -32.859375 L 30.078125 -32.109375 L 32.65625 -29.78125 L 34.5 -27.265625 L 35.28125 -25.375 L 35.4375 -24.484375 L 35.828125 -23.5 L 35.53125 -22.453125 L 34.75 -22 L 33.75 -21.90625 L 28.75 -22 L 27.65625 -22.453125 L 26.765625 -23.390625 L 26.3125 -24.234375 L 25.578125 -25.03125 L 24.140625 -26.21875 L 23.09375 -26.5625 L 21.21875 -26.90625 L 18.140625 -27.015625 L 16.40625 -26.515625 L 15.46875 -26.125 L 13.828125 -24.9375 L 12.59375 -23.390625 L 11.75 -21.609375 L 11.453125 -20.71875 L 11.40625 -19.71875 L 11.046875 -18.828125 L 11 -17.25 L 11.15625 -14.921875 L 11.75 -12.984375 L 12.140625 -12.140625 L 13.984375 -9.765625 L 14.625 -9.0625 L 15.5625 -8.625 L 18.234375 -7.625 L 21.015625 -7.578125 L 22.0625 -7.6875 L 23.046875 -7.984375 L 24.734375 -8.828125 L 26.609375 -10.859375 L 27.015625 -11.703125 L 28 -12.640625 L 29.09375 -13.140625 L 34.390625 -13.078125 L 35.640625 -12.546875 L 35.9375 -11.640625 L 35.78125 -10.703125 L 35.4375 -9.71875 L 35.1875 -8.765625 L 34.75 -7.875 L 33.25 -5.296875 L 32.40625 -4.65625 L 31.875 -3.8125 L 31.21875 -3.171875 L 30.375 -2.578125 L 29.484375 -2.03125 L 28.75 -1.53125 L 26.015625 -0.34375 L 21.21875 0.640625 Z M 18.234375 0.5 "/></g></g></g><g fill="#ff3131" fill-opacity="1"><g transform="translate(117.316064, 219.287798)"><g><path d="M 3.8125 -1.484375 L 3.671875 -2.484375 L 3.765625 -3.375 L 3.71875 -4.359375 L 3.8125 -5.453125 L 3.5625 -7.4375 L 3.71875 -9.421875 L 3.671875 -10.453125 L 3.8125 -11.34375 L 3.71875 -23.25 L 3.5625 -24.28125 L 3.8125 -26.265625 L 3.671875 -27.265625 L 3.625 -28.203125 L 3.765625 -31.171875 L 3.671875 -32.171875 L 3.671875 -33.203125 L 4.359375 -34.09375 L 5.15625 -34.75 L 9.171875 -34.640625 L 10.15625 -34.75 L 11.203125 -34.640625 L 12.09375 -34.15625 L 12.59375 -33.0625 L 12.640625 -32.0625 L 12.78125 -31.125 L 12.640625 -23.9375 L 12.78125 -23.046875 L 12.734375 -22 L 13.625 -21.453125 L 14.8125 -21.515625 L 17 -21.953125 L 17.84375 -22.359375 L 18.734375 -22.890625 L 19.484375 -23.546875 L 20.078125 -24.328125 L 20.71875 -25.078125 L 21.109375 -26.015625 L 21.609375 -28 L 21.859375 -30.078125 L 21.703125 -33.109375 L 22.25 -34.15625 L 23.4375 -34.75 L 24.875 -34.59375 L 29.390625 -34.75 L 30.4375 -34.203125 L 30.828125 -33.0625 L 30.875 -31.078125 L 30.671875 -30.140625 L 30.78125 -29.046875 L 30.484375 -26.96875 L 30.4375 -26.015625 L 29.9375 -24.140625 L 29.484375 -23.09375 L 29.234375 -22.203125 L 28.75 -21.265625 L 27.65625 -19.578125 L 26.21875 -18.140625 L 25.328125 -17.59375 L 24.875 -16.453125 L 24.875 -15.359375 L 26.609375 -12.890625 L 28.046875 -10.3125 L 28.640625 -9.421875 L 29.046875 -8.53125 L 29.640625 -7.734375 L 30.578125 -6.046875 L 31.328125 -5.203125 L 31.71875 -4.265625 L 32.21875 -3.421875 L 32.90625 -2.671875 L 33.359375 -1.484375 L 33.109375 -0.34375 L 32.265625 0.09375 L 31.21875 0 L 25.71875 0 L 24.03125 -0.34375 L 23.09375 -1.09375 L 21.765625 -3.671875 L 21.109375 -4.515625 L 20.671875 -5.359375 L 20.078125 -6.1875 L 18.828125 -8.765625 L 16.796875 -12.140625 L 15.859375 -12.890625 L 14.375 -13.1875 L 13.140625 -12.59375 L 12.6875 -11.703125 L 12.6875 -8.625 L 12.59375 -7.53125 L 12.734375 -1.53125 L 12.234375 -0.453125 L 10.796875 0.046875 L 5.59375 0.09375 L 4.15625 -0.453125 Z M 3.8125 -1.484375 "/></g></g></g><g fill="#ff3131" fill-opacity="1"><g transform="translate(148.487616, 219.287798)"><g><path d="M 3.5625 -1.4375 L 3.765625 -2.421875 L 3.8125 -3.421875 L 3.71875 -5.359375 L 3.71875 -6.34375 L 3.625 -7.484375 L 3.765625 -8.375 L 3.71875 -9.3125 L 3.8125 -10.40625 L 3.671875 -11.453125 L 3.765625 -13.4375 L 3.625 -15.359375 L 3.765625 -16.40625 L 3.765625 -25.28125 L 3.671875 -26.171875 L 3.765625 -27.203125 L 3.5625 -29.734375 L 3.765625 -31.171875 L 3.671875 -33.15625 L 4.15625 -34.25 L 5.59375 -34.59375 L 12.09375 -34.75 L 12.984375 -34.640625 L 14.921875 -34.6875 L 15.90625 -34.59375 L 18.09375 -34.6875 L 19.078125 -34.546875 L 19.96875 -34.640625 L 23.9375 -34.59375 L 24.984375 -34.15625 L 25.46875 -33.15625 L 25.328125 -32.21875 L 25.28125 -31.125 L 25.421875 -30.1875 L 25.53125 -28.15625 L 24.984375 -27.265625 L 23.9375 -26.71875 L 14.421875 -26.671875 L 12.890625 -26.21875 L 12.390625 -24.78125 L 12.484375 -23.25 L 13.078125 -22.359375 L 13.921875 -21.8125 L 17.84375 -21.859375 L 18.984375 -21.765625 L 20.015625 -21.765625 L 21.015625 -21.859375 L 23 -21.8125 L 23.84375 -21.265625 L 24.28125 -20.328125 L 24.390625 -19.328125 L 24.28125 -15.40625 L 23.796875 -14.46875 L 22.796875 -13.921875 L 21.90625 -13.875 L 20.859375 -13.984375 L 19.53125 -13.875 L 16.90625 -14.03125 L 15.90625 -13.921875 L 13.984375 -13.921875 L 13.078125 -13.375 L 12.640625 -12.34375 L 12.59375 -9.90625 L 13.03125 -8.375 L 14.078125 -7.78125 L 15.171875 -7.875 L 16.25 -7.78125 L 17.203125 -7.9375 L 23.734375 -7.828125 L 25.234375 -7.328125 L 25.875 -6.34375 L 25.765625 -5.40625 L 25.828125 -2.328125 L 25.71875 -1.390625 L 25.28125 -0.453125 L 24.234375 0.046875 L 23.296875 0.15625 L 20.265625 -0.046875 L 17.25 0.09375 L 16.359375 -0.046875 L 5.15625 0.046875 L 4.21875 -0.5 Z M 3.5625 -1.4375 "/></g></g></g><g fill="#ff3131" fill-opacity="1"><g transform="translate(173.712132, 219.287798)"><g><path d="M 9.515625 -1.53125 L 9.46875 -5.40625 L 9.5625 -6.390625 L 9.421875 -9.421875 L 9.46875 -10.453125 L 9.421875 -11.453125 L 9.609375 -12.9375 L 9.46875 -14.375 L 9.46875 -16.359375 L 9.5625 -17.34375 L 9.46875 -18.28125 L 9.609375 -19.828125 L 9.46875 -25.28125 L 8.96875 -26.21875 L 8.078125 -26.765625 L 3.671875 -26.8125 L 2.375 -26.671875 L 1.390625 -27.15625 L 0.84375 -28.25 L 0.890625 -33.203125 L 1.390625 -34.203125 L 2.484375 -34.6875 L 17.25 -34.59375 L 18.390625 -34.75 L 19.375 -34.75 L 20.375 -34.640625 L 21.359375 -34.640625 L 22.453125 -34.796875 L 23.390625 -34.796875 L 24.1875 -34.6875 L 25.375 -34.796875 L 26.375 -34.296875 L 26.859375 -33.3125 L 26.765625 -29.234375 L 26.859375 -28.203125 L 26.375 -27.203125 L 25.234375 -26.765625 L 22.5 -26.8125 L 21.609375 -26.71875 L 20.625 -26.765625 L 19.78125 -26.71875 L 18.6875 -26.265625 L 18.28125 -25.375 L 18.390625 -24.28125 L 18.234375 -23.296875 L 18.4375 -13.4375 L 18.28125 -11.34375 L 18.390625 -10.453125 L 18.28125 -7.4375 L 18.140625 -6.390625 L 18.28125 -5.546875 L 18.34375 -3.5625 L 18.234375 -2.421875 L 18.28125 -1.484375 L 17.890625 -0.5 L 16.90625 -0.09375 L 13.828125 -0.09375 L 12.890625 0 L 11.890625 -0.09375 L 10.953125 0 L 9.90625 -0.5 Z M 9.515625 -1.53125 "/></g></g></g><g fill="#ffffff" fill-opacity="1"><g transform="translate(196.663692, 219.287798)"><g><path d="M 18.234375 0.5 L 17.296875 0.5 L 16.40625 0.296875 L 15.359375 0.203125 L 14.328125 -0.15625 L 13.578125 -0.34375 L 12.59375 -0.6875 L 9.21875 -2.53125 L 8.46875 -3.125 L 7.625 -3.671875 L 5.84375 -5.40625 L 3.859375 -8.28125 L 3.515625 -9.125 L 3.015625 -10.015625 L 2.875 -10.90625 L 2.484375 -11.84375 L 1.984375 -13.78125 L 1.984375 -15.765625 L 1.78125 -17.34375 L 2.671875 -23.546875 L 4.953125 -28 L 5.546875 -28.84375 L 6.890625 -30.078125 L 7.484375 -30.875 L 10.953125 -33.109375 L 11.84375 -33.453125 L 12.59375 -33.90625 L 13.53125 -34.25 L 15.46875 -34.640625 L 16.40625 -34.9375 L 17.25 -35.046875 L 21.765625 -35.046875 L 24.234375 -34.6875 L 26.171875 -34.15625 L 29 -32.859375 L 30.078125 -32.109375 L 32.65625 -29.78125 L 34.5 -27.265625 L 35.28125 -25.375 L 35.4375 -24.484375 L 35.828125 -23.5 L 35.53125 -22.453125 L 34.75 -22 L 33.75 -21.90625 L 28.75 -22 L 27.65625 -22.453125 L 26.765625 -23.390625 L 26.3125 -24.234375 L 25.578125 -25.03125 L 24.140625 -26.21875 L 23.09375 -26.5625 L 21.21875 -26.90625 L 18.140625 -27.015625 L 16.40625 -26.515625 L 15.46875 -26.125 L 13.828125 -24.9375 L 12.59375 -23.390625 L 11.75 -21.609375 L 11.453125 -20.71875 L 11.40625 -19.71875 L 11.046875 -18.828125 L 11 -17.25 L 11.15625 -14.921875 L 11.75 -12.984375 L 12.140625 -12.140625 L 13.984375 -9.765625 L 14.625 -9.0625 L 15.5625 -8.625 L 18.234375 -7.625 L 21.015625 -7.578125 L 22.0625 -7.6875 L 23.046875 -7.984375 L 24.734375 -8.828125 L 26.609375 -10.859375 L 27.015625 -11.703125 L 28 -12.640625 L 29.09375 -13.140625 L 34.390625 -13.078125 L 35.640625 -12.546875 L 35.9375 -11.640625 L 35.78125 -10.703125 L 35.4375 -9.71875 L 35.1875 -8.765625 L 34.75 -7.875 L 33.25 -5.296875 L 32.40625 -4.65625 L 31.875 -3.8125 L 31.21875 -3.171875 L 30.375 -2.578125 L 29.484375 -2.03125 L 28.75 -1.53125 L 26.015625 -0.34375 L 21.21875 0.640625 Z M 18.234375 0.5 "/></g></g></g><g fill="#ffffff" fill-opacity="1"><g transform="translate(231.304349, 219.287798)"><g><path d="M 3.765625 -1.390625 L 3.671875 -6.4375 L 3.765625 -7.4375 L 3.625 -8.328125 L 3.765625 -9.3125 L 3.671875 -10.40625 L 3.8125 -12.734375 L 3.71875 -13.875 L 3.8125 -15.40625 L 3.671875 -16.359375 L 3.671875 -19.234375 L 3.765625 -20.265625 L 3.5625 -23.296875 L 3.765625 -24.28125 L 3.671875 -25.125 L 3.8125 -26.21875 L 3.5625 -29.1875 L 3.71875 -30.140625 L 3.625 -31.21875 L 3.625 -32.171875 L 3.765625 -33.25 L 4.3125 -34.09375 L 5.84375 -34.546875 L 6.796875 -34.640625 L 7.78125 -34.546875 L 10.703125 -34.640625 L 12.234375 -34.15625 L 12.84375 -33.109375 L 12.78125 -32.265625 L 12.9375 -27.359375 L 12.84375 -26.46875 L 12.84375 -23.5 L 13.234375 -22.546875 L 14.28125 -22.109375 L 19.078125 -22.15625 L 19.96875 -22.0625 L 21.953125 -22.0625 L 22.796875 -22.546875 L 23.34375 -23.546875 L 23.34375 -26.421875 L 23.546875 -27.265625 L 23.4375 -32.65625 L 23.84375 -34.09375 L 25.328125 -34.546875 L 26.3125 -34.546875 L 27.90625 -34.6875 L 30.4375 -34.640625 L 31.96875 -34.15625 L 32.46875 -33.15625 L 32.5625 -32.171875 L 32.359375 -31.171875 L 32.46875 -30.234375 L 32.65625 -29.296875 L 32.40625 -25.171875 L 32.5625 -20.328125 L 32.46875 -19.234375 L 32.515625 -17.34375 L 32.359375 -16.3125 L 32.359375 -15.3125 L 32.46875 -14.28125 L 32.40625 -13.28125 L 32.609375 -11.40625 L 32.609375 -3.421875 L 32.40625 -1.390625 L 31.875 -0.453125 L 30.875 0.09375 L 27.453125 0.09375 L 25.96875 -0.046875 L 24.984375 0.046875 L 23.984375 -0.453125 L 23.5 -1.484375 L 23.34375 -3.421875 L 23.546875 -4.90625 L 23.34375 -8.421875 L 23.5 -9.375 L 23.34375 -12.390625 L 22.84375 -13.375 L 21.953125 -13.875 L 21.015625 -13.875 L 20.015625 -13.984375 L 19.03125 -13.875 L 16.109375 -13.875 L 15.21875 -13.984375 L 14.171875 -13.984375 L 13.1875 -13.375 L 12.6875 -12.34375 L 12.84375 -8.421875 L 12.734375 -7.390625 L 12.78125 -6.296875 L 12.6875 -5.359375 L 12.78125 -4.359375 L 12.6875 -3.46875 L 12.84375 -2.375 L 12.78125 -1.390625 L 12.390625 -0.390625 L 11.296875 0.046875 L 10.265625 0.15625 L 9.21875 0 L 7.78125 -0.046875 L 6.25 0.09375 L 5.296875 0.09375 L 4.15625 -0.34375 Z M 3.765625 -1.390625 "/></g></g></g><g fill="#ffffff" fill-opacity="1"><g transform="translate(264.408682, 219.287798)"><g><path d="M 2.375 -1.4375 L 2.375 -5.25 L 2.484375 -6.1875 L 3.078125 -7.140625 L 6.34375 -8.171875 L 6.84375 -9.265625 L 6.9375 -11.203125 L 6.734375 -13.328125 L 6.984375 -14.328125 L 6.796875 -16.25 L 6.890625 -17.25 L 6.9375 -19.28125 L 6.796875 -20.421875 L 6.734375 -21.265625 L 6.890625 -25.46875 L 6.25 -26.375 L 3.21875 -27.40625 L 2.71875 -28.34375 L 2.71875 -29.296875 L 2.625 -30.28125 L 2.625 -31.375 L 2.71875 -32.21875 L 2.71875 -33.15625 L 3.265625 -34.203125 L 4.359375 -34.6875 L 6.296875 -34.59375 L 7.234375 -34.640625 L 10.265625 -34.59375 L 11.34375 -34.6875 L 17.640625 -34.640625 L 19.234375 -34.203125 L 19.625 -33.203125 L 19.71875 -32.21875 L 19.625 -31.328125 L 19.625 -28.40625 L 19.078125 -27.453125 L 18.140625 -26.90625 L 17.046875 -26.859375 L 16.109375 -26.3125 L 15.5625 -25.421875 L 15.5625 -23.34375 L 15.65625 -22.296875 L 15.5625 -21.3125 L 15.65625 -20.375 L 15.5625 -18.828125 L 15.65625 -17.34375 L 15.46875 -15.265625 L 15.65625 -13.28125 L 15.5625 -9.21875 L 16.109375 -8.234375 L 19.421875 -7.1875 L 20.125 -6.34375 L 19.96875 -3.328125 L 20.078125 -2.421875 L 20.078125 -1.34375 L 19.53125 -0.453125 L 18.578125 0.046875 L 3.859375 -0.046875 L 2.875 -0.390625 Z M 2.375 -1.4375 "/></g></g></g><g fill="#ffffff" fill-opacity="1"><g transform="translate(283.735715, 219.287798)"><g><path d="M 3.71875 -1.4375 L 3.625 -2.484375 L 3.8125 -3.421875 L 3.71875 -4.40625 L 3.765625 -10.453125 L 3.671875 -11.34375 L 3.625 -13.328125 L 3.765625 -14.328125 L 3.625 -16.3125 L 3.765625 -17.25 L 3.625 -19.375 L 3.765625 -20.328125 L 3.671875 -21.3125 L 3.8125 -22.203125 L 3.671875 -23.25 L 3.765625 -24.234375 L 3.71875 -25.171875 L 3.859375 -26.265625 L 3.765625 -27.203125 L 3.625 -28.203125 L 3.765625 -29.234375 L 3.859375 -30.1875 L 3.5625 -32.765625 L 4.21875 -34.09375 L 5.65625 -34.640625 L 10.796875 -34.75 L 12.09375 -34.15625 L 12.59375 -32.65625 L 12.6875 -30.234375 L 12.59375 -29.140625 L 12.734375 -21.40625 L 12.59375 -20.375 L 12.734375 -19.28125 L 12.59375 -17.890625 L 12.640625 -15.40625 L 12.546875 -14.375 L 12.640625 -13.375 L 12.59375 -12.296875 L 12.734375 -11.34375 L 12.6875 -9.515625 L 12.984375 -8.421875 L 14.03125 -7.984375 L 22.75 -7.875 L 23.84375 -8.03125 L 24.625 -7.53125 L 25.28125 -6.4375 L 25.125 -5.5 L 25.28125 -4.40625 L 25.171875 -3.515625 L 25.125 -2.53125 L 25.234375 -1.4375 L 24.6875 -0.546875 L 23.296875 -0.046875 L 5.75 0.046875 L 4.15625 -0.546875 Z M 3.71875 -1.4375 "/></g></g></g><g fill="#ffffff" fill-opacity="1"><g transform="translate(307.225673, 219.287798)"><g><path d="M 3.5625 -1.4375 L 3.765625 -2.421875 L 3.8125 -3.421875 L 3.71875 -5.359375 L 3.71875 -6.34375 L 3.625 -7.484375 L 3.765625 -8.375 L 3.71875 -9.3125 L 3.8125 -10.40625 L 3.671875 -11.453125 L 3.765625 -13.4375 L 3.625 -15.359375 L 3.765625 -16.40625 L 3.765625 -25.28125 L 3.671875 -26.171875 L 3.765625 -27.203125 L 3.5625 -29.734375 L 3.765625 -31.171875 L 3.671875 -33.15625 L 4.15625 -34.25 L 5.59375 -34.59375 L 12.09375 -34.75 L 12.984375 -34.640625 L 14.921875 -34.6875 L 15.90625 -34.59375 L 18.09375 -34.6875 L 19.078125 -34.546875 L 19.96875 -34.640625 L 23.9375 -34.59375 L 24.984375 -34.15625 L 25.46875 -33.15625 L 25.328125 -32.21875 L 25.28125 -31.125 L 25.421875 -30.1875 L 25.53125 -28.15625 L 24.984375 -27.265625 L 23.9375 -26.71875 L 14.421875 -26.671875 L 12.890625 -26.21875 L 12.390625 -24.78125 L 12.484375 -23.25 L 13.078125 -22.359375 L 13.921875 -21.8125 L 17.84375 -21.859375 L 18.984375 -21.765625 L 20.015625 -21.765625 L 21.015625 -21.859375 L 23 -21.8125 L 23.84375 -21.265625 L 24.28125 -20.328125 L 24.390625 -19.328125 L 24.28125 -15.40625 L 23.796875 -14.46875 L 22.796875 -13.921875 L 21.90625 -13.875 L 20.859375 -13.984375 L 19.53125 -13.875 L 16.90625 -14.03125 L 15.90625 -13.921875 L 13.984375 -13.921875 L 13.078125 -13.375 L 12.640625 -12.34375 L 12.59375 -9.90625 L 13.03125 -8.375 L 14.078125 -7.78125 L 15.171875 -7.875 L 16.25 -7.78125 L 17.203125 -7.9375 L 23.734375 -7.828125 L 25.234375 -7.328125 L 25.875 -6.34375 L 25.765625 -5.40625 L 25.828125 -2.328125 L 25.71875 -1.390625 L 25.28125 -0.453125 L 24.234375 0.046875 L 23.296875 0.15625 L 20.265625 -0.046875 L 17.25 0.09375 L 16.359375 -0.046875 L 5.15625 0.046875 L 4.21875 -0.5 Z M 3.5625 -1.4375 "/></g></g></g><g transform="matrix(1, 0, 0, 1, 207, 147)"><g clip-path="url(#1689f8fe79)"><g fill="#000000" fill-opacity="1"><g transform="translate(3.696012, 23.460448)"><g><path d="M 0.90625 -0.671875 L 0.890625 -0.984375 L 0.84375 -1.25 L 0.671875 -1.8125 L 0.59375 -2.078125 L 0.484375 -2.40625 L 0.46875 -2.65625 L 0.375 -2.921875 L 0.328125 -3.25 L 0.203125 -3.515625 L 0.09375 -4.09375 L -0.09375 -4.640625 L -0.125 -4.9375 L -0.78125 -7.46875 L -0.875 -7.703125 L -0.921875 -8.015625 L -1.171875 -8.71875 L -1.21875 -9.140625 L -1.390625 -9.6875 L -1.328125 -10.03125 L -0.953125 -10.234375 L 0.875 -10.765625 L 1.140625 -10.796875 L 1.6875 -10.953125 L 1.96875 -11 L 2.59375 -11.1875 L 2.875 -11.21875 L 3.125 -11.3125 L 4.265625 -11.59375 L 4.578125 -11.53125 L 4.8125 -11.296875 L 4.828125 -11.015625 L 4.890625 -10.703125 L 5.015625 -10.453125 L 5.171875 -9.875 L 5.09375 -9.578125 L 4.84375 -9.359375 L 2.140625 -8.640625 L 1.734375 -8.390625 L 1.71875 -7.9375 L 1.859375 -7.53125 L 2.078125 -7.328125 L 2.359375 -7.234375 L 3.453125 -7.53125 L 3.8125 -7.578125 L 4.09375 -7.65625 L 4.359375 -7.765625 L 4.921875 -7.890625 L 5.21875 -7.78125 L 5.390625 -7.5625 L 5.5 -7.28125 L 5.75 -6.171875 L 5.703125 -5.859375 L 5.4375 -5.640625 L 5.21875 -5.5625 L 4.890625 -5.515625 L 4.53125 -5.390625 L 3.765625 -5.21875 L 3.484375 -5.140625 L 2.953125 -5 L 2.734375 -4.765625 L 2.671875 -4.4375 L 2.828125 -3.734375 L 3.09375 -3.328125 L 3.421875 -3.234375 L 3.734375 -3.34375 L 4.03125 -3.390625 L 4.3125 -3.515625 L 6.171875 -3.96875 L 6.625 -3.953125 L 6.890625 -3.703125 L 6.9375 -3.421875 L 7.171875 -2.5625 L 7.203125 -2.28125 L 7.15625 -1.984375 L 6.875 -1.765625 L 6.640625 -1.671875 L 5.765625 -1.5 L 4.921875 -1.234375 L 4.640625 -1.21875 L 1.46875 -0.359375 L 1.15625 -0.453125 Z M 0.90625 -0.671875 "/></g></g></g><g fill="#000000" fill-opacity="1"><g transform="translate(10.861271, 21.606511)"><g><path d="M 3.921875 -1.28125 L 3.3125 -1.953125 L 3.1875 -2.234375 L 2.984375 -2.40625 L 2.40625 -3.125 L 2.265625 -3.375 L 1.875 -3.828125 L 1.734375 -4.046875 L 0.28125 -5.890625 L 0.078125 -6.09375 L -0.609375 -7.015625 L -0.8125 -7.21875 L -1.1875 -7.71875 L -1.40625 -7.953125 L -1.5625 -8.1875 L -1.75 -8.40625 L -2.09375 -8.875 L -2.28125 -9.09375 L -2.4375 -9.421875 L -2.484375 -9.734375 L -2.234375 -9.9375 L -1.9375 -10.03125 L -1.671875 -10.078125 L -1.4375 -10.171875 L -0.640625 -10.328125 L -0.296875 -10.296875 L 0.03125 -10.078125 L 0.203125 -9.890625 L 0.375 -9.65625 L 0.578125 -9.421875 L 0.6875 -9.171875 L 1.453125 -8.28125 L 1.578125 -8.015625 L 1.75 -7.78125 L 1.921875 -7.578125 L 2.234375 -7.0625 L 2.484375 -6.859375 L 2.609375 -6.65625 L 2.78125 -6.40625 L 2.953125 -6.171875 L 3.28125 -5.6875 L 3.453125 -5.46875 L 3.625 -5.53125 L 3.71875 -5.828125 L 3.734375 -6.09375 L 3.796875 -6.40625 L 4.40625 -10.96875 L 4.40625 -11.234375 L 4.59375 -11.5625 L 4.890625 -11.765625 L 6.546875 -12.203125 L 6.796875 -12.171875 L 6.984375 -11.84375 L 6.9375 -11.484375 L 6.953125 -11.21875 L 6.859375 -10.90625 L 6.84375 -10.609375 L 6.75 -10.328125 L 6.75 -10.0625 L 6.671875 -9.46875 L 6.546875 -9.203125 L 6.546875 -8.90625 L 6.40625 -8.59375 L 6.421875 -8.3125 L 6.40625 -8.0625 L 6.328125 -7.734375 L 6.3125 -7.171875 L 6.15625 -6.578125 L 6.125 -5.984375 L 5.734375 -3.96875 L 5.71875 -3.6875 L 5.609375 -3.125 L 5.546875 -2.84375 L 5.484375 -2.546875 L 5.375 -1.9375 L 5.375 -1.640625 L 5.203125 -1.359375 L 4.859375 -1.09375 L 4.5625 -1.046875 L 4.1875 -1.078125 Z M 3.921875 -1.28125 "/></g></g></g><g fill="#000000" fill-opacity="1"><g transform="translate(19.448377, 19.384686)"><g><path d="M 0.90625 -0.671875 L 0.890625 -0.984375 L 0.84375 -1.25 L 0.671875 -1.8125 L 0.59375 -2.078125 L 0.484375 -2.40625 L 0.46875 -2.65625 L 0.375 -2.921875 L 0.328125 -3.25 L 0.203125 -3.515625 L 0.09375 -4.09375 L -0.09375 -4.640625 L -0.125 -4.9375 L -0.78125 -7.46875 L -0.875 -7.703125 L -0.921875 -8.015625 L -1.171875 -8.71875 L -1.21875 -9.140625 L -1.390625 -9.6875 L -1.328125 -10.03125 L -0.953125 -10.234375 L 0.875 -10.765625 L 1.140625 -10.796875 L 1.6875 -10.953125 L 1.96875 -11 L 2.59375 -11.1875 L 2.875 -11.21875 L 3.125 -11.3125 L 4.265625 -11.59375 L 4.578125 -11.53125 L 4.8125 -11.296875 L 4.828125 -11.015625 L 4.890625 -10.703125 L 5.015625 -10.453125 L 5.171875 -9.875 L 5.09375 -9.578125 L 4.84375 -9.359375 L 2.140625 -8.640625 L 1.734375 -8.390625 L 1.71875 -7.9375 L 1.859375 -7.53125 L 2.078125 -7.328125 L 2.359375 -7.234375 L 3.453125 -7.53125 L 3.8125 -7.578125 L 4.09375 -7.65625 L 4.359375 -7.765625 L 4.921875 -7.890625 L 5.21875 -7.78125 L 5.390625 -7.5625 L 5.5 -7.28125 L 5.75 -6.171875 L 5.703125 -5.859375 L 5.4375 -5.640625 L 5.21875 -5.5625 L 4.890625 -5.515625 L 4.53125 -5.390625 L 3.765625 -5.21875 L 3.484375 -5.140625 L 2.953125 -5 L 2.734375 -4.765625 L 2.671875 -4.4375 L 2.828125 -3.734375 L 3.09375 -3.328125 L 3.421875 -3.234375 L 3.734375 -3.34375 L 4.03125 -3.390625 L 4.3125 -3.515625 L 6.171875 -3.96875 L 6.625 -3.953125 L 6.890625 -3.703125 L 6.9375 -3.421875 L 7.171875 -2.5625 L 7.203125 -2.28125 L 7.15625 -1.984375 L 6.875 -1.765625 L 6.640625 -1.671875 L 5.765625 -1.5 L 4.921875 -1.234375 L 4.640625 -1.21875 L 1.46875 -0.359375 L 1.15625 -0.453125 Z M 0.90625 -0.671875 "/></g></g></g><g fill="#000000" fill-opacity="1"><g transform="translate(26.613635, 17.530749)"><g><path d="M 8.234375 -2.390625 L 8.015625 -2.515625 L 7.796875 -2.6875 L 7.53125 -2.796875 L 7.28125 -2.984375 L 5.5625 -3.984375 L 5.28125 -4.125 L 2.78125 -5.5625 L 2.578125 -5.5625 L 2.46875 -5.359375 L 2.609375 -5.078125 L 3.453125 -1.625 L 3.5625 -1.34375 L 3.53125 -1.03125 L 3.28125 -0.8125 L 2.953125 -0.765625 L 2.65625 -0.640625 L 1.9375 -0.5 L 1.484375 -0.34375 L 1.15625 -0.4375 L 0.96875 -0.71875 L 0.890625 -1 L 0.78125 -1.25 L 0.6875 -1.8125 L 0.578125 -2.0625 L 0.453125 -2.65625 L 0.328125 -2.9375 L 0.25 -3.21875 L 0.203125 -3.515625 L 0.140625 -3.796875 L 0.09375 -4.0625 L -0.484375 -6.0625 L -0.515625 -6.359375 L -0.609375 -6.65625 L -0.640625 -6.921875 L -0.828125 -7.484375 L -0.875 -7.765625 L -1.421875 -9.734375 L -1.3125 -10.03125 L -1.015625 -10.296875 L -0.59375 -10.28125 L 0.0625 -10.046875 L 1.015625 -9.484375 L 1.265625 -9.28125 L 1.546875 -9.1875 L 1.734375 -9 L 2.046875 -8.890625 L 2.265625 -8.71875 L 2.796875 -8.453125 L 3.1875 -8.21875 L 3.375 -8.078125 L 3.65625 -7.96875 L 4.28125 -7.578125 L 4.515625 -7.46875 L 5.3125 -6.984375 L 5.53125 -6.984375 L 5.53125 -7.234375 L 5.375 -7.796875 L 5.359375 -8.109375 L 5.28125 -8.375 L 5.15625 -8.65625 L 4.5 -11.21875 L 4.5625 -11.546875 L 4.875 -11.78125 L 5.15625 -11.828125 L 5.390625 -11.9375 L 5.71875 -11.96875 L 6.015625 -12.078125 L 6.28125 -12.140625 L 6.5625 -12.1875 L 6.90625 -12.140625 L 7.15625 -11.921875 L 7.3125 -11.171875 L 7.453125 -10.765625 L 7.453125 -10.46875 L 7.609375 -9.90625 L 7.703125 -9.640625 L 7.8125 -9.078125 L 8.3125 -7.40625 L 8.359375 -7.0625 L 8.515625 -6.6875 L 9.4375 -2.84375 L 9.375 -2.53125 L 9.09375 -2.265625 L 8.703125 -2.296875 Z M 8.234375 -2.390625 "/></g></g></g><g fill="#000000" fill-opacity="1"><g transform="translate(36.326954, 15.017527)"><g><path d="M 2.59375 -1.140625 L 2.296875 -2.234375 L 2.25 -2.515625 L 1.984375 -3.359375 L 1.921875 -3.671875 L 1.828125 -3.9375 L 1.78125 -4.375 L 1.625 -4.78125 L 1.484375 -5.34375 L 1.4375 -5.640625 L 1.34375 -5.90625 L 1.28125 -6.328125 L 0.828125 -7.890625 L 0.640625 -8.09375 L 0.328125 -8.203125 L -0.921875 -7.890625 L -1.265625 -7.75 L -1.609375 -7.828125 L -1.84375 -8.09375 L -2.1875 -9.5 L -2.125 -9.828125 L -1.828125 -10.046875 L 2.359375 -11.09375 L 2.65625 -11.21875 L 2.9375 -11.296875 L 3.25 -11.34375 L 3.515625 -11.40625 L 3.828125 -11.546875 L 4.078125 -11.609375 L 4.328125 -11.640625 L 4.65625 -11.75 L 4.96875 -11.671875 L 5.1875 -11.4375 L 5.453125 -10.265625 L 5.5625 -9.984375 L 5.484375 -9.671875 L 5.203125 -9.46875 L 4.4375 -9.28125 L 4.171875 -9.1875 L 3.890625 -9.125 L 3.640625 -9.046875 L 3.390625 -8.828125 L 3.34375 -8.5625 L 3.4375 -8.234375 L 3.46875 -7.96875 L 4.25 -5.171875 L 4.375 -4.5625 L 4.453125 -4.3125 L 4.65625 -3.46875 L 4.6875 -3.140625 L 4.796875 -2.921875 L 4.9375 -2.359375 L 5 -2.046875 L 5.09375 -1.765625 L 5.046875 -1.453125 L 4.78125 -1.265625 L 3.921875 -1.046875 L 3.65625 -0.953125 L 3.359375 -0.90625 L 3.109375 -0.8125 L 2.78125 -0.875 Z M 2.59375 -1.140625 "/></g></g></g></g></g></svg>