<?xml version='1.0' encoding='UTF-8'?>
<svg xmlns="http://www.w3.org/2000/svg" width="256" height="256" viewBox="0 0 292.89374 292.89374" preserveAspectRatio="xMidYMid meet" version="1.2" baseProfile="tiny-ps">
  <title>BIMI Logo</title><desc>Brand logo for BIMI.</desc><defs id="defs3">
    <clipPath clipPathUnits="userSpaceOnUse" id="clipPath115">
      <path d="m 195.35153,149.31116 h 80 v 52.00001 h -80 z m 0,0" />
    </clipPath>
    </defs>
  <path d="m 260.01169,184.53773 -0.14454,-0.57031 3.41797,-0.88281 0.14844,0.57031 z m 3.9375,-6.33984 0.69531,2.6914 c 0.0195,0.0898 0.0391,0.17969 0.0508,0.26954 l -0.58203,0.082 c -0.008,-0.0703 -0.0195,-0.13672 -0.0391,-0.20313 l -0.69532,-2.6914 z m -1.32422,-2.77735 -0.75782,-2.92578 0.57032,-0.14453 0.7539,2.92188 z m -8.46094,10.62891 -0.14844,-0.57031 2.92578,-0.75391 0.14844,0.56641 z m 6.94922,-16.48047 -0.75391,-2.92187 0.56641,-0.14844 0.7539,2.92578 z m -12.80078,17.98828 -0.14453,-0.5664 2.92578,-0.75391 0.14453,0.56641 z m 11.28906,-23.83593 -0.75391,-2.92579 0.56641,-0.14453 0.75781,2.92188 z m -17.13672,25.34765 -0.14844,-0.5664 2.92578,-0.75782 0.14844,0.57032 z m 15.625,-31.19922 -0.39844,-1.55078 c -0.10547,-0.40234 -0.33593,-0.74219 -0.66797,-0.98828 l 0.34766,-0.47266 c 0.4375,0.32033 0.75,0.78908 0.88672,1.31641 l 0.40234,1.55078 z m -21.47656,32.71094 -0.14453,-0.56641 2.92578,-0.75781 0.14453,0.57031 z m -5.84766,1.51172 -0.14844,-0.57031 2.92579,-0.75391 0.14453,0.56641 z m 20.54297,-36.57422 2.92578,-0.75781 0.14453,0.57031 -2.92578,0.75391 z m -26.39453,38.08594 -0.14453,-0.57031 2.92187,-0.75391 0.14844,0.56641 z m 20.54297,-36.57813 2.92578,-0.7539 0.14844,0.5664 -2.92578,0.75782 z m -26.39063,38.08594 -0.14843,-0.56641 2.92578,-0.7539 0.14453,0.5664 z m 20.54297,-36.57422 2.92578,-0.7539 0.14453,0.5664 -2.92578,0.75781 z m -24.60156,37.625 c -0.61328,0.15625 -1.25391,0.0664 -1.80078,-0.25781 -0.0703,-0.0391 -0.14063,-0.0859 -0.20313,-0.13281 l 0.34766,-0.47266 c 0.0508,0.0352 0.10156,0.0703 0.15625,0.10156 0.41016,0.24219 0.89062,0.3125 1.35547,0.19141 l 1.1289,-0.29297 0.14844,0.57031 z m 21.67578,-36.86719 0.14453,0.56641 -2.92187,0.75391 -0.14844,-0.56641 z m -8.62891,2.83204 -0.14453,-0.56641 2.92188,-0.75781 0.14844,0.57031 z m -16.33984,30.77343 -0.75391,-2.92187 0.56641,-0.14844 0.75781,2.92578 z m 10.49219,-29.26172 -0.14844,-0.5664 2.92578,-0.75781 0.14453,0.57031 z m -12.00391,23.41407 -0.7539,-2.92578 0.5664,-0.14844 0.75781,2.92578 z m 6.15235,-21.90235 -0.14454,-0.57031 2.92188,-0.75391 0.14844,0.56641 z m -7.66016,16.05078 -0.75781,-2.92578 0.57031,-0.14453 0.75391,2.92578 z m 1.8125,-14.53906 -0.14844,-0.57031 2.92578,-0.75391 0.14453,0.56641 z m -3.32422,8.69141 -0.75391,-2.92578 0.56641,-0.14844 0.75391,2.92578 z m -0.92187,-5.96875 -0.58204,0.082 c -0.0742,-0.52734 0.0352,-1.07031 0.3086,-1.52734 0.32031,-0.54688 0.83594,-0.9336 1.44531,-1.08985 l 0.14844,0.56641 c -0.46094,0.12109 -0.84766,0.41015 -1.08985,0.82031 -0.20312,0.34766 -0.28515,0.75391 -0.23046,1.14844 z m 66.04687,14.55078 c -0.50781,-1.97266 0.66406,-3.98438 2.625,-4.52344 l -0.28125,-1.07812 c 0.008,0 -0.45312,-1.78516 -0.46094,-1.78516 l -0.14453,-0.55469 c -1.97265,0.48047 -3.97265,-0.71484 -4.48437,-2.6914 -0.51172,-1.97266 0.66406,-3.98438 2.625,-4.52344 l -0.4336,-1.67188 c 0.008,0 -0.53515,-2.09764 -0.54297,-2.09764 l -0.48828,-1.89453 c -1.97656,0.48046 -3.97656,-0.71486 -4.48437,-2.6875 -0.51172,-1.97658 0.66015,-3.98829 2.62109,-4.52344 l -0.0859,-0.33594 c 0.008,0 -0.52343,-2.02734 -0.51562,-1.99219 l -0.3125,-1.21093 c -1.94531,0.47265 -3.91797,-0.67969 -4.46094,-2.60547 l -1.8789,0.49609 -61.66797,15.92969 -1.78125,0.44531 c 0.46093,1.96485 -0.73047,3.94922 -2.69532,4.45703 -0.0156,0.004 -0.0352,0.008 -0.0508,0.0117 l 0.91407,3.53906 c 0.0156,-0.004 0.0312,-0.0117 0.0508,-0.0156 1.99218,-0.51563 4.02343,0.68359 4.53906,2.67578 0.51562,1.99219 -0.68359,4.02344 -2.67578,4.53906 -0.0195,0.004 -0.0352,0.008 -0.0547,0.0117 l 1.46484,5.66406 c 0.0156,-0.004 0.0352,-0.008 0.0508,-0.0117 1.99218,-0.51563 4.02734,0.68359 4.53906,2.67578 0.51562,1.99218 -0.6836,4.02343 -2.67578,4.53906 -0.0156,0.004 -0.0352,0.008 -0.0508,0.0117 l 0.88281,3.41797 c 0.0156,-0.004 0.0352,-0.008 0.0508,-0.0117 1.99219,-0.51563 4.02734,0.67969 4.53906,2.67578 0.004,0.0117 0.008,0.0273 0.0117,0.043 l 1.77344,-0.46875 61.66797,-15.92578 1.88281,-0.48047 c -0.004,-0.0117 -0.008,-0.0273 -0.0117,-0.043" clip-path="url(#clipPath115)" fill="#ff3131" transform="translate(-45.553098,-45.553165)" />
  <path d="m 12.093648,188.13955 -1.53125,-0.0469 -1.4375,-0.5 -0.65625,-1.07812 0.109375,-0.95313 0.04687,-2.875 -0.09375,-1.03125 0.04687,-4.01562 0.09375,-1 -0.140625,-7.375 0.09375,-1.39063 -0.04687,-0.98437 0.04687,-1.09375 -0.09375,-1.39063 0.09375,-1.59375 -0.546875,-0.98437 -0.9375,-0.5 -4.71875,-0.0937 -0.984375,0.0937 -0.890625,-0.48438 -0.453125,-0.90625 -0.09375,-1.53125 0.09375,-2.46875 -0.04687,-1 0.59375,-1.14062 0.9375,-0.5 3.46875,0.20312 1.546875,-0.14062 2.921875,0.14062 0.890625,-0.20312 1.09375,0.10937 1.03125,-0.15625 0.953125,0.0469 0.984375,0.20313 4.015625,-0.20313 0.9375,0.10938 1.046875,-0.15625 0.9375,0.10937 h 3.078125 l 0.9375,0.64063 0.546875,0.98437 -0.04687,4.71875 -0.59375,1.07813 -0.84375,0.54687 -0.890625,-0.0469 -1.046875,0.15625 -1.828125,-0.25 -1.9375,0.0937 -0.9375,0.59375 -0.40625,1.48437 -0.140625,4.3125 0.140625,1.04688 -0.09375,7.98437 0.15625,1.07813 -0.109375,0.89062 0.04687,1.98438 -0.09375,1.04687 0.15625,1.89063 -0.15625,2.5625 -0.5,1.39062 -1.4375,0.5 z" fill="#ff3131" />
  <path d="m 26.061843,186.6083 v -3.8125 l 0.109375,-0.9375 0.59375,-0.95312 3.265625,-1.03125 0.5,-1.09375 0.09375,-1.9375 -0.203125,-2.125 0.25,-1 -0.1875,-1.92188 0.09375,-1 0.04687,-2.03125 -0.140625,-1.14062 -0.0625,-0.84375 0.15625,-4.20313 -0.640625,-0.90625 -3.03125,-1.03125 -0.5,-0.9375 v -0.95312 l -0.09375,-0.98438 v -1.09375 l 0.09375,-0.84375 v -0.9375 l 0.546875,-1.04687 1.09375,-0.48438 1.9375,0.0937 0.9375,-0.0469 3.03125,0.0469 1.078125,-0.0937 6.296875,0.0469 1.59375,0.4375 0.390625,1 0.09375,0.98438 -0.09375,0.89062 v 2.92188 l -0.546875,0.95312 -0.9375,0.54688 -1.09375,0.0469 -0.9375,0.54688 -0.546875,0.89062 v 2.07813 l 0.09375,1.04687 -0.09375,0.98438 0.09375,0.9375 -0.09375,1.54687 0.09375,1.48438 -0.1875,2.07812 0.1875,1.98438 -0.09375,4.0625 0.546875,0.98437 3.3125,1.04688 0.703125,0.84375 -0.15625,3.01562 0.109375,0.90625 v 1.07813 l -0.546875,0.89062 -0.953125,0.5 -14.71875,-0.0937 -0.984375,-0.34375 z" fill="#ff3131" />
  <path d="m 60.703012,188.5458 h -0.9375 l -0.89063,-0.20312 -1.04687,-0.0937 -1.03125,-0.35937 -0.75,-0.1875 -0.98438,-0.34375 -3.374998,-1.84375 -0.75,-0.59375 -0.84375,-0.54688 -1.78125,-1.73437 -1.984375,-2.875 -0.34375,-0.84375 -0.5,-0.89063 -0.140625,-0.89062 -0.390625,-0.9375 -0.5,-1.9375 v -1.98438 l -0.203125,-1.57812 0.890625,-6.20313 2.28125,-4.45312 0.59375,-0.84375 1.34375,-1.23438 0.59375,-0.79687 3.46875,-2.23438 0.890625,-0.34375 0.749998,-0.45312 0.9375,-0.34375 1.9375,-0.39063 0.9375,-0.29687 0.84375,-0.10938 h 4.51563 l 2.46875,0.35938 1.9375,0.53125 2.82812,1.29687 1.07813,0.75 2.57812,2.32813 1.84375,2.51562 0.78125,1.89063 0.15625,0.89062 0.39063,0.98438 -0.29688,1.04687 -0.78125,0.45313 -1,0.0937 -5,-0.0937 -1.09375,-0.45313 -0.89062,-0.9375 -0.45313,-0.84375 -0.73437,-0.79687 -1.4375,-1.1875 -1.04688,-0.34375 -1.875,-0.34375 -3.07812,-0.10938 -1.73438,0.5 -0.9375,0.39063 -1.64062,1.1875 -1.23438,1.54687 -0.843748,1.78125 -0.296875,0.89063 -0.04687,1 -0.359375,0.89062 -0.04688,1.57813 0.15625,2.32812 0.59375,1.9375 0.390628,0.84375 1.84375,2.375 0.64062,0.70313 0.9375,0.4375 2.67188,1 2.78125,0.0469 1.04687,-0.10937 0.98438,-0.29688 1.6875,-0.84375 1.875,-2.03125 0.40625,-0.84375 0.98437,-0.9375 1.09375,-0.5 5.29688,0.0625 1.25,0.53125 0.29687,0.90625 -0.15625,0.9375 -0.34375,0.98438 -0.25,0.95312 -0.4375,0.89063 -1.5,2.57812 -0.84375,0.64063 -0.53125,0.84375 -0.65625,0.64062 -0.84375,0.59375 -0.89062,0.54688 -0.73438,0.5 -2.73437,1.1875 -4.79688,0.98437 z" fill="#ff3131" />
  <path d="m 80.921792,186.56142 -0.14062,-1 0.0937,-0.89062 -0.0469,-0.98438 0.0937,-1.09375 -0.25,-1.98437 0.15625,-1.98438 -0.0469,-1.03125 0.14062,-0.89062 -0.0937,-11.90625 -0.15625,-1.03125 0.25,-1.98438 -0.14062,-1 -0.0469,-0.9375 0.14063,-2.96875 -0.0937,-1 v -1.03125 l 0.6875,-0.89062 0.79687,-0.65625 4.01563,0.10937 0.98437,-0.10937 1.04688,0.10937 0.89062,0.48438 0.5,1.09375 0.0469,1 0.14062,0.9375 -0.14062,7.1875 0.14062,0.89062 -0.0469,1.04688 0.89062,0.54687 1.1875,-0.0625 2.1875,-0.4375 0.84375,-0.40625 0.89063,-0.53125 0.75,-0.65625 0.59375,-0.78125 0.64062,-0.75 0.39063,-0.9375 0.5,-1.98437 0.25,-2.07813 -0.15625,-3.03125 0.54687,-1.04687 1.187498,-0.59375 1.4375,0.15625 4.51563,-0.15625 1.04687,0.54687 0.39063,1.14063 0.0469,1.98437 -0.20312,0.9375 0.10937,1.09375 -0.29687,2.07813 -0.0469,0.95312 -0.5,1.875 -0.45312,1.04688 -0.25,0.89062 -0.48438,0.9375 -1.09375,1.6875 -1.4375,1.4375 -0.89062,0.54688 -0.45313,1.14062 v 1.09375 l 1.73438,2.46875 1.4375,2.57813 0.59375,0.89062 0.40625,0.89063 0.59375,0.79687 0.9375,1.6875 0.75,0.84375 0.39062,0.9375 0.5,0.84375 0.6875,0.75 0.45313,1.1875 -0.25,1.14063 -0.84375,0.4375 -1.04688,-0.0937 h -5.5 l -1.6875,-0.34375 -0.9375,-0.75 -1.328118,-2.57813 -0.65625,-0.84375 -0.4375,-0.84375 -0.59375,-0.82812 -1.25,-2.57813 -2.03125,-3.375 -0.9375,-0.75 -1.48438,-0.29687 -1.23437,0.59375 -0.45313,0.89062 v 3.07813 l -0.0937,1.09375 0.14063,6 -0.5,1.07812 -1.4375,0.5 -5.20313,0.0469 -1.4375,-0.54688 z" fill="#ff3131" />
  <path d="m 111.84334,186.6083 0.20312,-0.98437 0.0469,-1 -0.0937,-1.9375 v -0.98438 l -0.0937,-1.14062 0.14062,-0.89063 -0.0469,-0.9375 0.0937,-1.09375 -0.14063,-1.04687 0.0937,-1.98438 -0.14062,-1.92187 0.14062,-1.04688 v -8.875 l -0.0937,-0.89062 0.0937,-1.03125 -0.20312,-2.53125 0.20312,-1.4375 -0.0937,-1.98438 0.48438,-1.09375 1.4375,-0.34375 6.5,-0.15625 0.89062,0.10938 1.9375,-0.0469 0.98438,0.0937 2.1875,-0.0937 0.98437,0.14062 0.89063,-0.0937 3.96875,0.0469 1.04687,0.4375 0.48438,1 -0.14063,0.9375 -0.0469,1.09375 0.14062,0.9375 0.10938,2.03125 -0.54688,0.89062 -1.04687,0.54688 -9.51563,0.0469 -1.53125,0.45313 -0.5,1.4375 0.0937,1.53125 0.59375,0.89062 0.84375,0.54688 3.92188,-0.0469 1.14062,0.0937 h 1.03125 l 1,-0.0937 1.98437,0.0469 0.84375,0.54687 0.4375,0.9375 0.10937,1 -0.10937,3.92188 -0.48438,0.9375 -1,0.54687 -0.89062,0.0469 -1.04688,-0.10938 -1.32812,0.10938 -2.625,-0.15625 -1,0.10937 h -1.92188 l -0.90625,0.54688 -0.4375,1.03125 -0.0469,2.4375 0.4375,1.53125 1.04688,0.59375 1.09375,-0.0937 1.07813,0.0937 0.95312,-0.15625 6.53125,0.10937 1.5,0.5 0.64063,0.98438 -0.10938,0.9375 0.0625,3.07812 -0.10937,0.9375 -0.4375,0.9375 -1.04688,0.5 -0.9375,0.10938 -3.03125,-0.20312 -3.01563,0.14063 -0.89063,-0.14063 -11.20312,0.0937 -0.9375,-0.54687 z" fill="#ff3131" />
  <path d="m 143.02097,186.51455 -0.0469,-3.875 0.0937,-0.98437 -0.14063,-3.03125 0.0469,-1.03125 -0.0469,-1 0.1875,-1.48438 -0.14062,-1.4375 v -1.98437 l 0.0937,-0.98438 -0.0937,-0.9375 0.14062,-1.54687 -0.14062,-5.45313 -0.5,-0.9375 -0.89063,-0.54687 -4.40625,-0.0469 -1.29687,0.14062 -0.98438,-0.48437 -0.54687,-1.09375 0.0469,-4.95313 0.5,-1 1.09375,-0.48437 14.76563,0.0937 1.14062,-0.15625 h 0.98438 l 1,0.10937 h 0.98437 l 1.09375,-0.15625 h 0.9375 l 0.79688,0.10938 1.1875,-0.10938 1,0.5 0.48437,0.98438 -0.0937,4.07812 0.0937,1.03125 -0.48437,1 -1.14063,0.4375 -2.73437,-0.0469 -0.89063,0.0937 -0.98437,-0.0469 -0.84375,0.0469 -1.09375,0.45312 -0.40625,0.89063 0.10937,1.09375 -0.15625,0.98437 0.20313,9.85938 -0.15625,2.09375 0.10937,0.89062 -0.10937,3.01563 -0.14063,1.04687 0.14063,0.84375 0.0625,1.98438 -0.10938,1.14062 0.0469,0.9375 -0.39062,0.98438 -0.98437,0.40625 h -3.07813 l -0.9375,0.0937 -1,-0.0937 -0.9375,0.0937 -1.04687,-0.5 z" fill="#ff3131" />
  <path d="m 174.69128,188.5458 h -0.9375 l -0.89062,-0.20312 -1.04688,-0.0937 -1.03125,-0.35937 -0.75,-0.1875 -0.98437,-0.34375 -3.375,-1.84375 -0.75,-0.59375 -0.84375,-0.54688 -1.78125,-1.73437 -1.98438,-2.875 -0.34375,-0.84375 -0.5,-0.89063 -0.14062,-0.89062 -0.39063,-0.9375 -0.5,-1.9375 v -1.98438 l -0.20312,-1.57812 0.89062,-6.20313 2.28125,-4.45312 0.59375,-0.84375 1.34375,-1.23438 0.59375,-0.79687 3.46875,-2.23438 0.89063,-0.34375 0.75,-0.45312 0.9375,-0.34375 1.9375,-0.39063 0.9375,-0.29687 0.84375,-0.10938 h 4.51562 l 2.46875,0.35938 1.9375,0.53125 2.82813,1.29687 1.07812,0.75 2.57813,2.32813 1.84375,2.51562 0.78125,1.89063 0.15625,0.89062 0.39062,0.98438 -0.29687,1.04687 -0.78125,0.45313 -1,0.0937 -5,-0.0937 -1.09375,-0.45313 -0.89063,-0.9375 -0.45312,-0.84375 -0.73438,-0.79687 -1.4375,-1.1875 -1.04687,-0.34375 -1.875,-0.34375 -3.07813,-0.10938 -1.73437,0.5 -0.9375,0.39063 -1.64063,1.1875 -1.23437,1.54687 -0.84375,1.78125 -0.29688,0.89063 -0.0469,1 -0.35937,0.89062 -0.0469,1.57813 0.15625,2.32812 0.59375,1.9375 0.39062,0.84375 1.84375,2.375 0.64063,0.70313 0.9375,0.4375 2.67187,1 2.78125,0.0469 1.04688,-0.10937 0.98437,-0.29688 1.6875,-0.84375 1.875,-2.03125 0.40625,-0.84375 0.98438,-0.9375 1.09375,-0.5 5.29687,0.0625 1.25,0.53125 0.29688,0.90625 -0.15625,0.9375 -0.34375,0.98438 -0.25,0.95312 -0.4375,0.89063 -1.5,2.57812 -0.84375,0.64063 -0.53125,0.84375 -0.65625,0.64062 -0.84375,0.59375 -0.89063,0.54688 -0.73437,0.5 -2.73438,1.1875 -4.79687,0.98437 z" fill="#000000" />
  <path d="m 194.86319,186.65517 -0.0937,-5.04687 0.0937,-1 -0.14062,-0.89063 0.14062,-0.98437 -0.0937,-1.09375 0.14063,-2.32813 -0.0937,-1.14062 0.0937,-1.53125 -0.14063,-0.95313 v -2.875 l 0.0937,-1.03125 -0.20312,-3.03125 0.20312,-0.98437 -0.0937,-0.84375 0.14063,-1.09375 -0.25,-2.96875 0.15625,-0.95313 -0.0937,-1.07812 v -0.95313 l 0.14062,-1.07812 0.54688,-0.84375 1.53125,-0.45313 0.95312,-0.0937 0.98438,0.0937 2.92187,-0.0937 1.53125,0.48438 0.60938,1.04687 -0.0625,0.84375 0.15625,4.90625 -0.0937,0.89063 v 2.96875 l 0.39062,0.95312 1.04688,0.4375 4.79687,-0.0469 0.89063,0.0937 h 1.98437 l 0.84375,-0.48437 0.54688,-1 v -2.875 l 0.20312,-0.84375 -0.10937,-5.39063 0.40625,-1.4375 1.48437,-0.45312 h 0.98438 l 1.59375,-0.14063 2.53125,0.0469 1.53125,0.48438 0.5,1 0.0937,0.98437 -0.20313,1 0.10938,0.9375 0.1875,0.9375 -0.25,4.125 0.15625,4.84375 -0.0937,1.09375 0.0469,1.89063 -0.15625,1.03125 v 1 l 0.10937,1.03125 -0.0625,1 0.20313,1.875 v 7.98437 l -0.20313,2.03125 -0.53125,0.9375 -1,0.54688 h -3.42187 l -1.48438,-0.14063 -0.98437,0.0937 -1,-0.5 -0.48437,-1.03125 -0.15625,-1.9375 0.20312,-1.48437 -0.20312,-3.51563 0.15625,-0.95312 -0.15625,-3.01563 -0.5,-0.98437 -0.89063,-0.5 h -0.9375 l -1,-0.10938 -0.98437,0.10938 h -2.92188 l -0.89062,-0.10938 h -1.04688 l -0.98437,0.60938 -0.5,1.03125 0.15625,3.92187 -0.10938,1.03125 0.0469,1.09375 -0.0937,0.9375 0.0937,1 -0.0937,0.89063 0.15625,1.09375 -0.0625,0.98437 -0.39062,1 -1.09375,0.4375 -1.03125,0.10938 -1.04687,-0.15625 -1.4375,-0.0469 -1.53125,0.14063 h -0.95313 l -1.14062,-0.4375 z" fill="#000000" />
  <path d="m 226.57691,186.6083 v -3.8125 l 0.10938,-0.9375 0.59375,-0.95312 3.26562,-1.03125 0.5,-1.09375 0.0937,-1.9375 -0.20312,-2.125 0.25,-1 -0.1875,-1.92188 0.0937,-1 0.0469,-2.03125 -0.14062,-1.14062 -0.0625,-0.84375 0.15625,-4.20313 -0.64063,-0.90625 -3.03125,-1.03125 -0.5,-0.9375 v -0.95312 l -0.0937,-0.98438 v -1.09375 l 0.0937,-0.84375 v -0.9375 l 0.54688,-1.04687 1.09375,-0.48438 1.9375,0.0937 0.9375,-0.0469 3.03125,0.0469 1.07812,-0.0937 6.29688,0.0469 1.59375,0.4375 0.39062,1 0.0937,0.98438 -0.0937,0.89062 v 2.92188 l -0.54687,0.95312 -0.9375,0.54688 -1.09375,0.0469 -0.9375,0.54688 -0.54688,0.89062 v 2.07813 l 0.0937,1.04687 -0.0937,0.98438 0.0937,0.9375 -0.0937,1.54687 0.0937,1.48438 -0.1875,2.07812 0.1875,1.98438 -0.0937,4.0625 0.54688,0.98437 3.3125,1.04688 0.70312,0.84375 -0.15625,3.01562 0.10938,0.90625 v 1.07813 l -0.54688,0.89062 -0.95312,0.5 -14.71875,-0.0937 -0.98438,-0.34375 z" fill="#000000" />
  <path d="m 247.24769,186.6083 -0.0937,-1.04687 0.1875,-0.9375 -0.0937,-0.98438 0.0469,-6.04687 -0.0937,-0.89063 -0.0469,-1.98437 0.14062,-1 -0.14062,-1.98438 0.14062,-0.9375 -0.14062,-2.125 0.14062,-0.95312 -0.0937,-0.98438 0.14063,-0.89062 -0.14063,-1.04688 0.0937,-0.98437 -0.0469,-0.9375 0.14062,-1.09375 -0.0937,-0.9375 -0.14062,-1 0.14062,-1.03125 0.0937,-0.95313 -0.29687,-2.57812 0.65625,-1.32813 1.4375,-0.54687 5.14062,-0.10938 1.29688,0.59375 0.5,1.5 0.0937,2.42188 -0.0937,1.09375 0.14062,7.73437 -0.14062,1.03125 0.14062,1.09375 -0.14062,1.39063 0.0469,2.48437 -0.0937,1.03125 0.0937,1 -0.0469,1.07813 0.14062,0.95312 -0.0469,1.82813 0.29688,1.09375 1.04687,0.4375 8.71875,0.10937 1.09375,-0.15625 0.78125,0.5 0.65625,1.09375 -0.15625,0.9375 0.15625,1.09375 -0.10937,0.89063 -0.0469,0.98437 0.10937,1.09375 -0.54687,0.89063 -1.39063,0.5 -17.54688,0.0937 -1.59375,-0.59375 z" fill="#000000" />
  <path d="m 270.58139,186.6083 0.20313,-0.98437 0.0469,-1 -0.0937,-1.9375 v -0.98438 l -0.0937,-1.14062 0.14063,-0.89063 -0.0469,-0.9375 0.0937,-1.09375 -0.14062,-1.04687 0.0937,-1.98438 -0.14063,-1.92187 0.14063,-1.04688 v -8.875 l -0.0937,-0.89062 0.0937,-1.03125 -0.20313,-2.53125 0.20313,-1.4375 -0.0937,-1.98438 0.48437,-1.09375 1.4375,-0.34375 6.5,-0.15625 0.89063,0.10938 1.9375,-0.0469 0.98437,0.0937 2.1875,-0.0937 0.98438,0.14062 0.89062,-0.0937 3.96875,0.0469 1.04688,0.4375 0.48437,1 -0.14062,0.9375 -0.0469,1.09375 0.14062,0.9375 0.10938,2.03125 -0.54688,0.89062 -1.04687,0.54688 -9.51563,0.0469 -1.53125,0.45313 -0.5,1.4375 0.0937,1.53125 0.59375,0.89062 0.84375,0.54688 3.92188,-0.0469 1.14062,0.0937 h 1.03125 l 1,-0.0937 1.98437,0.0469 0.84375,0.54687 0.4375,0.9375 0.10938,1 -0.10938,3.92188 -0.48437,0.9375 -1,0.54687 -0.89063,0.0469 -1.04687,-0.10938 -1.32813,0.10938 -2.625,-0.15625 -1,0.10937 h -1.92187 l -0.90625,0.54688 -0.4375,1.03125 -0.0469,2.4375 0.4375,1.53125 1.04687,0.59375 1.09375,-0.0937 1.07813,0.0937 0.95312,-0.15625 6.53125,0.10937 1.5,0.5 0.64063,0.98438 -0.10938,0.9375 0.0625,3.07812 -0.10937,0.9375 -0.4375,0.9375 -1.04688,0.5 -0.9375,0.10938 -3.03125,-0.20312 -3.01563,0.14063 -0.89062,-0.14063 -11.20313,0.0937 -0.9375,-0.54687 z" fill="#000000" />
  <path d="m 171.40069,138.54658 -0.0156,-0.3125 -0.0469,-0.26563 -0.17188,-0.5625 -0.0781,-0.26562 -0.10938,-0.32813 -0.0156,-0.25 -0.0937,-0.26562 -0.0469,-0.32813 -0.125,-0.26562 -0.10937,-0.57813 -0.1875,-0.54687 -0.0312,-0.29688 -0.65625,-2.53125 -0.0937,-0.23437 -0.0469,-0.3125 -0.25,-0.70313 -0.0469,-0.42187 -0.17188,-0.54688 0.0625,-0.34375 0.375,-0.20312 1.82813,-0.53125 0.26562,-0.0312 0.54688,-0.15625 0.28125,-0.0469 0.625,-0.1875 0.28125,-0.0312 0.25,-0.0937 1.14062,-0.28125 0.3125,0.0625 0.23438,0.23438 0.0156,0.28125 0.0625,0.3125 0.125,0.25 0.15625,0.57812 -0.0781,0.29688 -0.25,0.21875 -2.70313,0.71875 -0.40625,0.25 -0.0156,0.45312 0.14062,0.40625 0.21875,0.20313 0.28125,0.0937 1.09375,-0.29688 0.35938,-0.0469 0.28125,-0.0781 0.26562,-0.10937 0.5625,-0.125 0.29688,0.10937 0.17187,0.21875 0.10938,0.28125 0.25,1.10938 -0.0469,0.3125 -0.26562,0.21875 -0.21875,0.0781 -0.32813,0.0469 -0.35937,0.125 -0.76563,0.17187 -0.28125,0.0781 -0.53125,0.14062 -0.21875,0.23438 -0.0625,0.32812 0.15625,0.70313 0.26563,0.40625 0.32812,0.0937 0.3125,-0.10938 0.29688,-0.0469 0.28125,-0.125 1.85937,-0.45312 0.45313,0.0156 0.26562,0.25 0.0469,0.28125 0.23437,0.85937 0.0312,0.28125 -0.0469,0.29688 -0.28125,0.21875 -0.23438,0.0937 -0.875,0.17187 -0.84375,0.26563 -0.28125,0.0156 -3.17187,0.85938 -0.3125,-0.0937 z" fill="#ffffff" />
  <path d="m 181.58157,136.08326 -0.60937,-0.67188 -0.125,-0.28125 -0.20313,-0.17187 -0.57812,-0.71875 -0.14063,-0.25 -0.39062,-0.45313 -0.14063,-0.21875 -1.45312,-1.84375 -0.20313,-0.20312 -0.6875,-0.92188 -0.20312,-0.20312 -0.375,-0.5 -0.21875,-0.23438 -0.15625,-0.23437 -0.1875,-0.21875 -0.34375,-0.46875 -0.1875,-0.21875 -0.15625,-0.32813 -0.0469,-0.3125 0.25,-0.20312 0.29688,-0.0937 0.26562,-0.0469 0.23438,-0.0937 0.79687,-0.15625 0.34375,0.0312 0.32813,0.21875 0.17187,0.1875 0.17188,0.23437 0.20312,0.23438 0.10938,0.25 0.76562,0.89062 0.125,0.26563 0.17188,0.23437 0.17187,0.20313 0.3125,0.51562 0.25,0.20313 0.125,0.20312 0.17188,0.25 0.17187,0.23438 0.32813,0.48437 0.17187,0.21875 0.17188,-0.0625 0.0937,-0.29687 0.0156,-0.26563 0.0625,-0.3125 0.60938,-4.5625 v -0.26562 l 0.1875,-0.32813 0.29687,-0.20312 1.65625,-0.4375 0.25,0.0312 0.1875,0.32813 -0.0469,0.35937 0.0156,0.26563 -0.0937,0.3125 -0.0156,0.29687 -0.0937,0.28125 v 0.26563 l -0.0781,0.59375 -0.125,0.26562 v 0.29687 l -0.14062,0.3125 0.0156,0.28125 -0.0156,0.25 -0.0781,0.32813 -0.0156,0.5625 -0.15625,0.59375 -0.0312,0.59375 -0.39063,2.01562 -0.0156,0.28125 -0.10938,0.5625 -0.0625,0.28125 -0.0625,0.29688 -0.10937,0.60937 v 0.29688 l -0.17188,0.28125 -0.34375,0.26562 -0.29687,0.0469 -0.375,-0.0312 z" fill="#ffffff" />
  <path d="m 187.15306,134.47081 -0.0156,-0.3125 -0.0469,-0.26562 -0.17188,-0.5625 -0.0781,-0.26563 -0.10938,-0.32812 -0.0156,-0.25 -0.0937,-0.26563 -0.0469,-0.32812 -0.125,-0.26563 -0.10937,-0.57812 -0.1875,-0.54688 -0.0312,-0.29687 -0.65625,-2.53125 -0.0937,-0.23438 -0.0469,-0.3125 -0.25,-0.70312 -0.0469,-0.42188 -0.17188,-0.54687 0.0625,-0.34375 0.375,-0.20313 1.82813,-0.53125 0.26562,-0.0312 0.54688,-0.15625 0.28125,-0.0469 0.625,-0.1875 0.28125,-0.0312 0.25,-0.0937 1.14062,-0.28125 0.3125,0.0625 0.23438,0.23437 0.0156,0.28125 0.0625,0.3125 0.125,0.25 0.15625,0.57813 -0.0781,0.29687 -0.25,0.21875 -2.70313,0.71875 -0.40625,0.25 -0.0156,0.45313 0.14062,0.40625 0.21875,0.20312 0.28125,0.0937 1.09375,-0.29687 0.35938,-0.0469 0.28125,-0.0781 0.26562,-0.10938 0.5625,-0.125 0.29688,0.10938 0.17187,0.21875 0.10938,0.28125 0.25,1.10937 -0.0469,0.3125 -0.26562,0.21875 -0.21875,0.0781 -0.32813,0.0469 -0.35937,0.125 -0.76563,0.17188 -0.28125,0.0781 -0.53125,0.14063 -0.21875,0.23437 -0.0625,0.32813 0.15625,0.70312 0.26563,0.40625 0.32812,0.0937 0.3125,-0.10937 0.29688,-0.0469 0.28125,-0.125 1.85937,-0.45312 0.45313,0.0156 0.26562,0.25 0.0469,0.28125 0.23437,0.85938 0.0312,0.28125 -0.0469,0.29687 -0.28125,0.21875 -0.23438,0.0937 -0.875,0.17188 -0.84375,0.26562 -0.28125,0.0156 -3.17187,0.85937 -0.3125,-0.0937 z" fill="#ffffff" />
  <path d="m 201.64643,130.89812 -0.21875,-0.125 -0.21875,-0.17187 -0.26562,-0.10938 -0.25,-0.1875 -1.71875,-1 -0.28125,-0.14062 -2.5,-1.4375 h -0.20313 l -0.10937,0.20312 0.14062,0.28125 0.84375,3.45313 0.10938,0.28125 -0.0312,0.3125 -0.25,0.21875 -0.32813,0.0469 -0.29687,0.125 -0.71875,0.14063 -0.45313,0.15625 -0.32812,-0.0937 -0.1875,-0.28125 -0.0781,-0.28125 -0.10937,-0.25 -0.0937,-0.5625 -0.10938,-0.25 -0.125,-0.59375 -0.125,-0.28125 -0.0781,-0.28125 -0.0469,-0.29688 -0.0625,-0.28125 -0.0469,-0.26562 -0.57813,-2 -0.0312,-0.29688 -0.0937,-0.29687 -0.0312,-0.26563 -0.1875,-0.5625 -0.0469,-0.28125 -0.54688,-1.96875 0.10938,-0.29687 0.29687,-0.26563 0.42188,0.0156 0.65625,0.23438 0.95312,0.5625 0.25,0.20312 0.28125,0.0937 0.1875,0.1875 0.3125,0.10938 0.21875,0.17187 0.53125,0.26563 0.39063,0.23437 0.1875,0.14063 0.28125,0.10937 0.625,0.39063 0.23437,0.10937 0.79688,0.48438 h 0.21875 v -0.25 l -0.15625,-0.56251 -0.0156,-0.3125 -0.0781,-0.26562 -0.125,-0.28125 -0.65625,-2.5625 0.0625,-0.32813 0.3125,-0.23437 0.28125,-0.0469 0.23437,-0.10938 0.32813,-0.0312 0.29687,-0.10937 0.26563,-0.0625 0.28125,-0.0469 0.34375,0.0469 0.25,0.21875 0.15625,0.75 0.14062,0.40625 v 0.29687 l 0.15625,0.5625 0.0937,0.26563 0.10938,0.5625 0.5,1.67187 0.0469,0.34375 0.15625,0.375 0.92188,3.84375 -0.0625,0.3125 -0.28125,0.26563 -0.39063,-0.0312 z" fill="#ffffff" />
  <path d="m 205.71913,129.6349 -0.29688,-1.09375 -0.0469,-0.28125 -0.26563,-0.84374 -0.0625,-0.3125 -0.0937,-0.26563 -0.0469,-0.4375 -0.15625,-0.40625 -0.14063,-0.5625 -0.0469,-0.29687 -0.0937,-0.26563 -0.0625,-0.42187 -0.45313,-1.5625 -0.1875,-0.20313 -0.3125,-0.10937 -1.25,0.3125 -0.34375,0.14062 -0.34375,-0.0781 -0.23437,-0.26562 -0.34375,-1.40625 0.0625,-0.32813 0.29687,-0.21875 4.1875,-1.04687 0.29688,-0.125 0.28125,-0.0781 0.3125,-0.0469 0.26562,-0.0625 0.3125,-0.14063 0.25,-0.0625 0.25,-0.0312 0.32813,-0.10937 0.3125,0.0781 0.21875,0.23437 0.26562,1.17188 0.10938,0.28125 -0.0781,0.3125 -0.28125,0.20312 -0.76562,0.1875 -0.26563,0.0937 -0.28125,0.0625 -0.25,0.0781 -0.25,0.21875 -0.0469,0.26563 0.0937,0.32812 0.0312,0.26563 0.78125,2.79687 0.125,0.60938 0.0781,0.25 0.20313,0.84375 0.0312,0.32812 0.10937,0.21875 0.14063,0.5625 0.0625,0.3125 0.0937,0.28125 -0.0469,0.3125 -0.26562,0.1875 -0.85938,0.21875 -0.26562,0.0937 -0.29688,0.0469 -0.25,0.0937 -0.32812,-0.0625 z" fill="#ffffff" />
  </svg>